<svg class="svg-icon" style="width: 1.189453125em; height: 1em;vertical-align: middle;fill: currentColor;overflow: hidden;" viewBox="0 0 1218 1024" version="1.1" xmlns="http://www.w3.org/2000/svg"><path d="M304.155676 0C259.487135 52.639135 276.756757 82.75027 304.155676 83.027027 332.274162 83.303784 349.599135 52.639135 304.155676 0z"  /><path d="M608.588108 0c-44.613189 52.639135-27.398919 82.75027 0 83.027027C636.706595 83.303784 654.031568 52.639135 608.588108 0z"  /><path d="M913.020541 0c-44.613189 52.639135-27.398919 82.75027 0 83.027027C941.139027 83.303784 958.464 52.639135 913.020541 0z"  /><path d="M276.756757 110.702703l55.351351 0 0 221.405405-55.351351 0 0-221.405405Z"  /><path d="M885.621622 110.702703l55.351351 0 0 221.405405-55.351351 0 0-221.405405Z"  /><path d="M581.189189 110.702703l55.351351 0 0 221.405405-55.351351 0 0-221.405405Z"  /><path d="M0 470.929297l0 441.869838C0 974.239135 49.262703 1024 110.204541 1024l997.320649 0c60.886486 0 110.204541-49.926919 110.204541-111.200865L1217.72973 470.929297C1217.72973 409.544649 1168.467027 359.783784 1107.525189 359.783784L110.204541 359.783784C49.318054 359.783784 0 409.710703 0 470.929297zM1162.378378 912.799135c0 30.830703-24.742054 55.849514-54.853189 55.849514L110.204541 968.648649C79.982703 968.648649 55.351351 943.795892 55.351351 912.799135l0-243.822703c23.247568 17.435676 46.218378 31.052108 68.635676 39.852973C141.810162 715.803676 159.024432 719.567568 175.629838 719.567568c38.358486 0 66.034162-15.996541 108.820757-53.248 5.147676-4.483459 5.147676-4.483459 10.24-8.966919C336.038054 621.042162 356.462703 608.864865 383.197405 608.864865c27.122162 0 48.985946 12.177297 95.979243 49.373405 3.487135 2.767568 3.487135 2.767568 7.029622 5.535135C536.576 703.515676 566.07827 719.567568 606.706162 719.567568c42.620541 0 71.458595-16.107243 129.688216-61.163243 3.985297-3.044324 3.985297-3.044324 7.859892-6.088649C785.435676 620.654703 807.410162 608.864865 830.27027 608.864865c21.808432 0 42.122378 12.121946 87.399784 49.096649 3.763892 3.044324 3.763892 3.044324 7.527784 6.144C973.574919 703.460324 1001.804108 719.567568 1038.889514 719.567568c21.531676 0 44.557838-6.918919 69.244541-19.428324 17.546378-8.856216 35.701622-20.424649 54.244324-34.151784L1162.378378 912.799135zM1162.378378 470.929297l0 124.09773c-7.749189 6.697514-15.775135 13.284324-23.911784 19.594378-19.372973 15.055568-38.08173 27.398919-55.296 36.089081C1065.568865 659.677405 1050.402595 664.216216 1038.889514 664.216216c-19.705081 0-40.295784-11.789838-78.764973-43.063351-3.708541-2.988973-3.708541-2.988973-7.417081-6.088649C896.802595 569.454703 870.067892 553.513514 830.27027 553.513514c-39.354811 0-69.078486 15.941189-119.724973 54.963892-4.040649 3.099676-4.040649 3.099676-7.970595 6.199351C654.363676 651.983568 632.389189 664.216216 606.706162 664.216216c-23.967135 0-45.388108-11.623784-86.292757-43.893622-3.431784-2.712216-3.431784-2.712216-6.918919-5.479784C456.704 569.842162 427.423135 553.513514 383.197405 553.513514c-44.834595 0-73.894054 17.324973-125.038703 62.214919-5.092324 4.483459-5.092324 4.483459-10.073946 8.800865C214.873946 653.478054 196.331243 664.216216 175.629838 664.216216c-9.132973 0-19.705081-2.324757-31.494919-6.918919-20.812108-8.136649-44.004324-22.860108-68.026811-42.288432C69.023135 609.252324 62.104216 603.274378 55.351351 597.18573L55.351351 470.929297C55.351351 440.098595 80.093405 415.135135 110.204541 415.135135l997.320649 0C1137.747027 415.135135 1162.378378 439.987892 1162.378378 470.929297z"  /></svg>