<svg class="svg-icon" style="width: 1em; height: 1em;vertical-align: middle;fill: currentColor;overflow: hidden;" viewBox="0 0 1024 1024" version="1.1" xmlns="http://www.w3.org/2000/svg"><path d="M341.333333 426.666667l-128 0 0-128-85.333333 0 0 128-128 0 0 85.333333 128 0 0 128 85.333333 0 0-128 128 0 0-85.333333zM768 469.333333c70.613333 0 127.573333-57.386667 127.573333-128s-56.96-128-127.573333-128c-13.653333 0-26.666667 2.133333-39.04 6.186667 24.106667 34.56 38.613333 76.586667 38.613333 121.813333s-14.506667 87.253333-38.613333 121.813333c12.373333 4.053333 25.386667 6.186667 39.04 6.186667zM554.666667 469.333333c70.613333 0 127.573333-57.386667 127.573333-128s-56.96-128-127.573333-128c-70.613333 0-128 57.386667-128 128s57.386667 128 128 128zM837.12 561.493333c35.413333 30.933333 58.88 70.826667 58.88 121.173333l0 85.333333 128 0 0-85.333333c0-65.706667-101.333333-106.026667-186.88-121.173333zM554.666667 554.666667c-85.333333 0-256 42.666667-256 128l0 85.333333 512 0 0-85.333333c0-85.333333-170.666667-128-256-128z"  /></svg>