<svg class="svg-icon" style="width: 1em; height: 1em;vertical-align: middle;fill: currentColor;overflow: hidden;" viewBox="0 0 1024 1024" version="1.1" xmlns="http://www.w3.org/2000/svg"><path d="M445.343744 525.346816c-96.13312-47.366144-133.09952-149.192704-108.351488-236.546048 24.864768-87.762944 102.639616-145.75616 194.801664-145.401856 86.628352 0.333824 164.511744 60.598272 188.198912 146.04288 24.3712 87.912448-12.814336 189.353984-109.631488 236.466176 5.20192 1.683456 9.558016 3.196928 13.973504 4.5056 36.612096 10.868736 70.158336 27.89376 101.011456 50.300928 8.415232 6.111232 6.981632 16.175104 4.777984 19.83488-1.867776 3.100672-11.169792 7.90528-20.043776 1.411072-46.485504-34.013184-98.535424-54.110208-155.746304-58.79808-166.172672-13.615104-300.937216 98.162688-333.135872 244.979712-1.386496 6.311936-2.189312 12.752896-3.6352 19.048448-1.970176 8.574976-8.32512 13.268992-16.441344 11.892736-5.834752-0.989184-9.46176-5.6832-9.07264-15.777792 25.847808-139.669504 106.928128-230.600704 241.50016-274.550784 1.611776-0.526336 3.29728-0.825344 4.931584-1.294336 1.927168-0.555008 3.84-1.1776 6.862848-2.113536z m82.825216-9.220096c87.943168 3.52256 173.04576-72.853504 172.818432-172.355584-0.221184-96.72704-76.38016-174.153728-172.378112-174.239744-96.088064-0.086016-172.398592 77.13792-172.83072 173.799424-0.446464 99.612672 84.600832 176.115712 172.3904 172.795904zM767.96928 720.86528c0 28.52864 0.004096 55.47008-0.002048 82.409472-0.002048 13.092864-6.965248 15.839232-12.519424 15.828992-4.984832 0-11.988992-2.699264-11.99104-15.372288-0.008192-27.22816-0.002048-54.458368-0.002048-82.868224h-47.540224c-11.784192 0-23.56224-0.219136-35.340288 0.155648-3.422208 0.108544-7.186432-0.27648-9.975808-2.433024-2.254848-1.742848-3.81952-4.38272-4.624384-7.092224-0.32768-1.107968-0.653312-2.4064-0.653312-3.569664 0-4.347904 3.733504-9.515008 7.763968-10.903552 2.6624-0.915456 5.423104-0.804864 8.194048-0.794624l8.742912 0.026624c5.844992 0.016384 11.689984 0.028672 17.534976 0.04096a22901.66784 22901.66784 0 0 0 55.90016 0.057344v-10.180608c0-23.887872-0.018432-47.775744 0.008192-71.663616 0.012288-11.010048 7.258112-16.044032 12.675072-15.560704 6.549504-0.006144 12.15488 5.824512 11.997184 14.8992-0.464896 26.94144-0.165888 53.895168-0.165888 82.501632h10.02496c24.911872 0 49.829888 0.280576 74.733568-0.14336 7.944192 0.114688 12.62592 7.921664 12.62592 12.169216 0 5.031936-5.193728 12.648448-12.529664 12.589056-24.225792-0.305152-48.457728-0.1024-72.687616-0.100352-3.678208 0.004096-7.354368 0.004096-12.169216 0.004096z" fill="" /></svg>