<svg class="svg-icon" style="width: 1em; height: 1em;vertical-align: middle;fill: currentColor;overflow: hidden;" viewBox="0 0 1024 1024" version="1.1" xmlns="http://www.w3.org/2000/svg"><path d="M603.685677 532.611433c47.845705-20.710694 81.445964-68.303642 81.445964-123.654274 0-74.28589-60.438511-134.75203-134.75203-134.75203S415.627581 334.671269 415.627581 408.957159c0 55.343469 33.593096 102.929254 81.429591 123.644041-87.86107 20.720927-158.357658 90.641393-175.933965 182.246741-2.294252 11.984962 5.560646 23.592324 17.573237 25.859971 12.012591 2.321882 23.565718-5.560646 25.886577-17.545608 17.032932-88.808652 95.152127-153.215544 185.742355-153.215544 90.914616 0 169.087023 64.677045 185.877431 153.863297 1.997494 10.635221 11.282974 18.031679 21.702278 18.031679 1.349741 0 2.726088-0.161682 4.130064-0.3776 11.984962-2.267647 19.894096-13.875009 17.626449-25.859971C762.32986 623.61303 691.805644 553.395806 603.685677 532.611433zM459.843618 408.957159c0-49.884131 40.625256-90.481757 90.535993-90.481757s90.535993 40.597627 90.535993 90.481757-40.625256 90.481757-90.535993 90.481757S459.843618 458.84129 459.843618 408.957159z"  /><path d="M782.558577 65.106834 232.259296 65.106834c-64.993247 0-117.680213 52.686966-117.680213 117.680213l0 658.425907c0 64.993247 52.686966 117.680213 117.680213 117.680213l550.300304 0c64.993247 0 117.680213-52.686966 117.680213-117.680213l0-658.425907C900.23879 117.7938 847.551824 65.106834 782.558577 65.106834zM862.376461 841.212954c0 44.011376-35.805484 79.817883-79.817883 79.817883L232.259296 921.030837c-44.011376 0-79.817883-35.806507-79.817883-79.817883l0-93.442182 57.517995 0c6.186909 9.468652 16.874319 15.731286 29.030174 15.731286 19.144012 0 34.662451-15.518438 34.662451-34.662451 0-19.144012-15.519462-34.662451-34.662451-34.662451-12.154831 0-22.842241 6.261611-29.030174 15.731286l-57.516971 0 0-183.64253 57.534368 0c6.189979 9.454326 16.869203 15.70468 29.013801 15.70468 19.144012 0 34.662451-15.518438 34.662451-34.662451 0-19.144012-15.519462-34.662451-34.662451-34.662451-12.166087 0-22.861684 6.27389-29.046546 15.756869l-57.500599 0L152.443459 304.762075l57.629535 0c6.204305 9.371438 16.83748 15.556301 28.91761 15.556301 19.144012 0 34.662451-15.518438 34.662451-34.662451 0-19.144012-15.519462-34.662451-34.662451-34.662451-12.229532 0-22.972201 6.339382-29.142737 15.906272l-57.405431 0 0-84.1127c0-44.011376 35.806507-79.817883 79.817883-79.817883l550.300304 0c44.0124 0 79.817883 35.806507 79.817883 79.817883L862.378507 841.212954z"  /></svg>